<svg width="76" height="82" viewBox="0 0 76 82" fill="none" xmlns="http://www.w3.org/2000/svg">
<path fill-rule="evenodd" clip-rule="evenodd" d="M62.6381 51.3093L54.9269 59.0207C54.4178 59.5298 53.7418 59.8106 53.022 59.8106C52.3031 59.8106 51.6258 59.53 51.1179 59.0207C51.0177 58.9196 50.9241 58.8109 50.8396 58.694L47.7135 54.7591C47.2662 54.1963 47.0647 53.4932 47.1462 52.7812C47.2284 52.0667 47.5822 51.4278 48.1443 50.9797C48.7063 50.5324 49.4094 50.3301 50.1238 50.4125C50.8383 50.494 51.4772 50.8492 51.9238 51.412L53.2501 53.0807L58.8294 47.5005C59.8802 46.452 61.5875 46.452 62.6383 47.5005C63.6875 48.5513 63.6875 50.2584 62.6381 51.3093ZM75.4891 73.6684L69.5279 63.3417C69.6818 63.1878 69.8757 63.0678 70.1027 62.9894C71.7223 62.4288 73.0388 61.0198 73.6234 59.2227C74.2081 57.4243 73.9713 55.5096 72.9905 54.1049C72.6223 53.5768 72.6223 52.9461 72.9905 52.4173C73.9711 51.0111 74.208 49.0987 73.6234 47.3003C73.0388 45.5019 71.7239 44.0919 70.1027 43.5315C69.4947 43.3217 69.1227 42.8111 69.1115 42.1676C69.0783 40.4536 68.1459 38.7669 66.6167 37.6557C65.0853 36.5445 63.194 36.1771 61.554 36.6759C60.9369 36.8629 60.3364 36.6675 59.948 36.1537C59.1528 35.103 57.9375 34.3802 56.5586 34.1004V4.76921C56.5586 2.22769 54.4908 0.159912 51.9493 0.159912H20.1876C18.9384 0.159912 17.8113 0.626127 16.9279 1.51019L1.62307 16.8144C0.739652 17.6985 0.273438 18.8248 0.273438 20.0741V68.6751C0.273438 71.2166 2.34041 73.2836 4.88193 73.2836H35.2873L35.0655 73.6683C34.723 74.2628 34.7546 74.9801 35.1484 75.5407C35.5422 76.1012 36.2069 76.3751 36.882 76.2535L42.5941 75.2283L44.5637 80.6878C44.7969 81.3335 45.3648 81.7719 46.0475 81.8329C46.1004 81.8374 46.1547 81.8396 46.2074 81.8396C46.8291 81.8396 47.3941 81.5159 47.7101 80.9683L52.8475 72.0696C53.592 72.3805 54.4203 72.5501 55.2773 72.5501C56.1358 72.5501 56.9619 72.3803 57.7064 72.0696L62.8446 80.9683C63.1599 81.5161 63.7272 81.8396 64.3465 81.8396C64.3994 81.8396 64.4537 81.8374 64.5071 81.8329C65.1891 81.7717 65.7572 81.3335 65.9918 80.6878L67.96 75.2283L73.6729 76.2535C74.3465 76.3749 75.0112 76.1012 75.4058 75.5407C75.7999 74.9788 75.8316 74.2613 75.4891 73.6684ZM36.7674 70.7219H4.88193C3.75347 70.7219 2.8353 69.8023 2.8353 68.6752V20.0742C2.8353 20.0403 2.83834 20.0102 2.83978 19.9776H15.8038C18.1674 19.9776 20.0894 18.0547 20.0894 15.6904V2.72706C20.1226 2.72562 20.1543 2.72257 20.1874 2.72257H51.9491C53.0786 2.72257 53.9958 3.64059 53.9958 4.76921V34.1004C52.6168 34.3803 51.4014 35.103 50.607 36.1537C50.2178 36.6675 49.6173 36.8629 49.001 36.6759C47.361 36.1771 45.4689 36.5445 43.9391 37.6557C42.677 38.5715 41.8231 39.8803 41.5431 41.2722H25.5248C24.8179 41.2722 24.2439 41.8455 24.2439 42.5531C24.2439 43.2615 24.8179 43.834 25.5248 43.834H39.76C38.4624 44.5168 37.4305 45.766 36.9318 47.3005C36.8888 47.4318 36.8518 47.5646 36.8179 47.6996H25.5248C24.8179 47.6996 24.2439 48.2721 24.2439 48.9805C24.2439 49.6881 24.8179 50.2614 25.5248 50.2614H36.7002C36.8329 51.0444 37.1219 51.7829 37.5639 52.4175C37.9327 52.944 37.9335 53.577 37.5647 54.105C37.1853 54.6483 36.9189 55.2682 36.7665 55.9276H25.5248C24.8179 55.9276 24.2439 56.5016 24.2439 57.2093C24.2439 57.9169 24.8179 58.4903 25.5248 58.4903H36.7417C36.7907 58.7355 36.8533 58.9791 36.9318 59.2212C37.5165 61.0196 38.832 62.4288 40.451 62.9894C40.6789 63.0678 40.8727 63.1878 41.0274 63.3417L36.7674 70.7219ZM46.3744 78.1562L44.6378 73.3417C44.4258 72.7541 43.8215 72.4048 43.2067 72.5156L38.1682 73.4186L42.054 66.6887C42.4841 67.5215 43.126 68.276 43.9392 68.8666C45.4691 69.9786 47.3611 70.3437 49.0011 69.8458C49.6174 69.658 50.218 69.8533 50.6072 70.3679C50.6554 70.4328 50.7082 70.4954 50.7611 70.558L46.3744 78.1562ZM55.2777 63.4798C49.6432 63.4798 45.0595 58.8953 45.0595 53.2616C45.0595 47.6272 49.6432 43.0419 55.2777 43.0419C60.9113 43.0419 65.495 47.627 65.495 53.2616C65.495 58.8953 60.9113 63.4798 55.2777 63.4798ZM67.3485 72.5158C66.7328 72.4048 66.1294 72.7541 65.9167 73.3419L64.1801 78.1562L59.7942 70.558C59.8471 70.4954 59.8998 70.4328 59.9481 70.3679C60.3367 69.8535 60.9371 69.658 61.5542 69.8458C63.1942 70.3437 65.0855 69.9786 66.6169 68.8666C67.4286 68.276 68.0706 67.5215 68.5013 66.6887L72.3872 73.4186L67.3485 72.5158ZM17.0078 56.4534C17.5058 55.9502 18.3166 55.9471 18.8199 56.4451C19.3223 56.943 19.3261 57.7539 18.8282 58.2563L12.7517 64.3901C12.5012 64.6436 12.1716 64.7695 11.8412 64.7695C11.5191 64.7695 11.1963 64.6481 10.9472 64.4066L7.55766 61.1027C7.05077 60.6078 7.0402 59.7976 7.53428 59.2899C8.02836 58.7837 8.83939 58.7725 9.34629 59.2673L11.826 61.6836L17.0078 56.4534ZM10.9472 35.0961L7.55782 31.7927C7.05093 31.2978 7.04036 30.4876 7.53444 29.9807C8.02852 29.4738 8.83955 29.4639 9.34645 29.9573L11.8261 32.3736L17.008 27.1435C17.5059 26.6403 18.3168 26.6373 18.82 27.1352C19.3224 27.6331 19.3263 28.4441 18.8283 28.9464L12.7519 35.0802C12.5014 35.3337 12.1718 35.4596 11.8414 35.4596C11.519 35.4598 11.1961 35.3382 10.9472 35.0961ZM17.0078 41.7988C17.5058 41.2964 18.3166 41.2911 18.8199 41.7896C19.3223 42.2876 19.3261 43.0992 18.8282 43.6025L12.7517 49.7348C12.5012 49.9876 12.1716 50.1143 11.8412 50.1143C11.5191 50.1143 11.1963 49.9943 10.9472 49.7507L7.55782 46.4465C7.05093 45.9532 7.04036 45.1414 7.53444 44.6353C8.02852 44.1276 8.83955 44.1178 9.34645 44.6111L11.8261 47.0296L17.0078 41.7988ZM36.9523 14.5242C36.2455 14.5242 35.6713 13.9516 35.6713 13.2432C35.6713 12.5371 36.2453 11.9615 36.9523 11.9615H48.3796C49.0871 11.9615 49.6605 12.5371 49.6605 13.2432C49.6605 13.9516 49.0871 14.5242 48.3796 14.5242H36.9523ZM25.5248 20.9514C24.8179 20.9514 24.2439 20.378 24.2439 19.6705C24.2439 18.9621 24.8179 18.3887 25.5248 18.3887H48.3796C49.0871 18.3887 49.6605 18.9621 49.6605 19.6705C49.6605 20.378 49.0871 20.9514 48.3796 20.9514H25.5248ZM25.5248 29.1802C24.8179 29.1802 24.2439 28.6069 24.2439 27.8993C24.2439 27.1909 24.8179 26.6176 25.5248 26.6176H48.3796C49.0871 26.6176 49.6605 27.1909 49.6605 27.8993C49.6605 28.6069 49.0871 29.1802 48.3796 29.1802H25.5248ZM25.5248 35.6062C24.8179 35.6062 24.2439 35.0328 24.2439 34.3244C24.2439 33.6183 24.8179 33.0435 25.5248 33.0435H36.9521C37.6597 33.0435 38.2338 33.6183 38.2338 34.3244C38.2338 35.0328 37.6598 35.6062 36.9521 35.6062H25.5248ZM38.2338 63.6343C38.2338 64.3427 37.6598 64.916 36.9521 64.916H25.5248C24.8179 64.916 24.2439 64.3427 24.2439 63.6343C24.2439 62.9268 24.8179 62.3534 25.5248 62.3534H36.9521C37.6598 62.3534 38.2338 62.9268 38.2338 63.6343Z" fill="url(#paint0_linear_429_2750)"/>
<defs>
<linearGradient id="paint0_linear_429_2750" x1="37.9994" y1="0.159912" x2="37.9994" y2="81.8396" gradientUnits="userSpaceOnUse">
<stop stop-color="#FFD600"/>
<stop offset="0.25" stop-color="#FF7A00"/>
<stop offset="0.5" stop-color="#FF0069"/>
<stop offset="0.75" stop-color="#D300C5"/>
<stop offset="1" stop-color="#7638FA"/>
</linearGradient>
</defs>
</svg>
