<svg id="Layer_1" enable-background="new 0 0 512 512" viewBox="0 0 512 512" xmlns="http://www.w3.org/2000/svg"><path clip-rule="evenodd" d="m409.842 320.371-48.148 48.149c-3.179 3.179-7.4 4.932-11.894 4.932-4.489 0-8.718-1.752-11.889-4.932-.626-.631-1.21-1.31-1.738-2.04l-19.519-24.569c-2.793-3.514-4.051-7.904-3.542-12.35.513-4.461 2.722-8.45 6.232-11.248 3.509-2.793 7.899-4.056 12.36-3.542 4.461.509 8.45 2.727 11.239 6.241l8.281 10.419 34.837-34.842c6.561-6.547 17.221-6.547 23.782 0 6.551 6.561 6.551 17.22-.001 23.782zm80.24 139.608-37.221-64.479c.961-.961 2.172-1.71 3.589-2.2 10.113-3.5 18.333-12.298 21.983-23.519 3.651-11.229 2.172-23.184-3.952-31.955-2.299-3.297-2.299-7.235 0-10.537 6.123-8.78 7.602-20.721 3.952-31.95s-11.86-20.033-21.983-23.532c-3.796-1.31-6.119-4.498-6.189-8.516-.207-10.702-6.029-21.234-15.577-28.172-9.562-6.938-21.371-9.232-31.611-6.118-3.853 1.168-7.603-.052-10.028-3.26-4.965-6.561-12.553-11.074-21.163-12.821v-183.141c0-15.869-12.911-28.78-28.78-28.78h-198.317c-7.8 0-14.837 2.911-20.353 8.431l-95.562 95.558c-5.516 5.52-8.427 12.553-8.427 20.353v303.46c0 15.869 12.906 28.775 28.775 28.775h189.848l-1.385 2.402c-2.138 3.712-1.941 8.191.518 11.691s6.609 5.21 10.824 4.451l35.666-6.401 12.298 34.088c1.456 4.032 5.002 6.769 9.265 7.15.33.028.669.042.998.042 3.882 0 7.41-2.021 9.383-5.44l32.077-55.563c4.649 1.941 9.821 3 15.172 3 5.36 0 10.518-1.06 15.167-3l32.082 55.563c1.969 3.42 5.511 5.44 9.378 5.44.33 0 .669-.014 1.003-.042 4.258-.382 7.805-3.118 9.27-7.15l12.289-34.088 35.671 6.401c4.206.758 8.356-.951 10.82-4.451 2.461-3.508 2.659-7.988.52-11.69zm-241.774-18.398h-199.09c-7.046 0-12.779-5.742-12.779-12.779v-303.46c0-.212.019-.4.028-.603h80.946c14.758 0 26.759-12.007 26.759-26.769v-80.942c.207-.009.405-.028.612-.028h198.317c7.052 0 12.779 5.732 12.779 12.779v183.141c-8.61 1.748-16.199 6.26-21.159 12.821-2.43 3.208-6.18 4.428-10.028 3.26-10.24-3.114-22.054-.82-31.606 6.118-7.88 5.718-13.212 13.89-14.96 22.581h-100.017c-4.414 0-7.998 3.58-7.998 7.998 0 4.423 3.584 7.998 7.998 7.998h88.883c-8.102 4.263-14.545 12.063-17.659 21.644-.268.82-.499 1.649-.711 2.492h-70.513c-4.414 0-7.998 3.575-7.998 7.998 0 4.418 3.584 7.998 7.998 7.998h69.778c.829 4.889 2.633 9.5 5.393 13.462 2.303 3.288 2.308 7.24.005 10.537-2.369 3.392-4.032 7.263-4.984 11.38h-70.192c-4.414 0-7.998 3.584-7.998 8.003 0 4.418 3.584 7.998 7.998 7.998h70.037c.306 1.531.697 3.052 1.187 4.564 3.651 11.229 11.865 20.028 21.974 23.528 1.423.49 2.633 1.239 3.599 2.2zm59.985 46.419-10.843-30.061c-1.324-3.669-5.097-5.85-8.936-5.158l-31.46 5.638 24.263-42.021c2.685 5.2 6.693 9.911 11.771 13.599 9.552 6.943 21.366 9.223 31.606 6.114 3.848-1.173 7.598.047 10.028 3.26.301.405.631.796.961 1.187zm55.591-91.638c-35.181 0-63.801-28.625-63.801-63.801 0-35.181 28.62-63.811 63.801-63.811 35.176 0 63.796 28.629 63.796 63.811 0 35.176-28.62 63.801-63.796 63.801zm75.369 56.42c-3.844-.693-7.612 1.488-8.94 5.158l-10.843 30.06-27.385-47.442c.33-.391.659-.782.961-1.187 2.426-3.212 6.175-4.433 10.028-3.26 10.24 3.109 22.049.829 31.611-6.114 5.068-3.688 9.077-8.399 11.766-13.599l24.263 42.021zm-314.322-100.292c3.109-3.142 8.172-3.161 11.314-.052 3.137 3.109 3.161 8.172.052 11.309l-37.941 38.299c-1.564 1.583-3.622 2.369-5.685 2.369-2.011 0-4.027-.758-5.582-2.266l-21.164-20.629c-3.165-3.09-3.231-8.149-.146-11.319 3.085-3.161 8.149-3.231 11.314-.141l15.483 15.087zm-37.842-133.353-21.163-20.626c-3.165-3.09-3.231-8.149-.146-11.314s8.149-3.227 11.314-.146l15.483 15.087 32.355-32.656c3.109-3.142 8.172-3.161 11.314-.052 3.137 3.109 3.161 8.173.052 11.309l-37.941 38.299c-1.564 1.583-3.622 2.369-5.685 2.369-2.013.001-4.029-.758-5.583-2.27zm37.842 41.851c3.109-3.137 8.172-3.17 11.314-.057 3.137 3.109 3.161 8.177.052 11.319l-37.941 38.29c-1.564 1.578-3.622 2.369-5.685 2.369-2.011 0-4.027-.749-5.582-2.27l-21.163-20.631c-3.165-3.08-3.231-8.149-.146-11.309 3.085-3.17 8.149-3.231 11.314-.151l15.483 15.101zm124.531-170.3c-4.413 0-7.998-3.575-7.998-7.998 0-4.409 3.584-8.003 7.998-8.003h71.351c4.418 0 7.998 3.594 7.998 8.003 0 4.423-3.58 7.998-7.998 7.998zm-71.352 40.131c-4.414 0-7.998-3.58-7.998-7.998 0-4.423 3.584-8.003 7.998-8.003h142.703c4.418 0 7.998 3.58 7.998 8.003 0 4.418-3.58 7.998-7.998 7.998zm0 51.38c-4.414 0-7.998-3.58-7.998-7.998 0-4.423 3.584-8.003 7.998-8.003h142.703c4.418 0 7.998 3.58 7.998 8.003 0 4.418-3.58 7.998-7.998 7.998zm0 40.123c-4.414 0-7.998-3.58-7.998-8.003 0-4.409 3.584-7.998 7.998-7.998h71.351c4.418 0 8.003 3.589 8.003 7.998 0 4.423-3.584 8.003-8.003 8.003zm79.354 175.005c0 4.423-3.584 8.003-8.003 8.003h-71.351c-4.414 0-7.998-3.58-7.998-8.003 0-4.418 3.584-7.998 7.998-7.998h71.351c4.419 0 8.003 3.58 8.003 7.998z" fill-rule="evenodd"/></svg>