<svg width="24" height="9" viewBox="0 0 24 9" fill="none" xmlns="http://www.w3.org/2000/svg">
<path d="M0 5.71853C0 7.48429 0.677839 9 3.49129 9C5.83679 9 7.23677 7.84976 7.24062 5.36269V0H5.22442V5.48194C5.22442 6.80145 4.77958 7.28617 3.62609 7.28617C2.37053 7.28617 2.04316 6.63219 2.04316 5.59927V0.00192243H0V5.71853Z" fill="black"/>
<path d="M8.9391 7.23424V8.83073L14.8048 8.82881V6.94572H13.1294C12.0818 6.94572 11.585 6.94572 11.4136 6.97265C11.5484 6.78991 11.6486 6.64565 11.7545 6.47446L14.7547 1.66189V0.00192243H9.03153V1.83308H10.8629C11.7179 1.83308 12.0202 1.81962 12.2513 1.80615C12.0818 2.02928 11.9239 2.2524 11.7834 2.48707L8.9391 7.23424Z" fill="black"/>
<path d="M21.9549 5.15495V8.83073H24V0.00192243H21.9549V3.39111H18.7197V0.00192243H16.6766V8.83073H18.7197V5.15495H21.9549Z" fill="black"/>
</svg>
